<?xml version="1.0" encoding="UTF-8"?>
<svg width="453px" height="157px" viewBox="0 0 453 157" version="1.1" xmlns="http://www.w3.org/2000/svg" xmlns:xlink="http://www.w3.org/1999/xlink">
    <title>Group</title>
    <defs>
        <path d="M0,12.2325 C12.498,12.2325 23.602,18.2115 30.6,27.4685 L30.6,27.4685 C31.685,29.49 32.8885,31.413 34.203,33.2245 L34.203,33.2245 C38.509,39.1805 43.976,43.937 50.1915,47.0075 L50.1915,47.0075 C55.267,49.519 60.8425,50.9055 66.6935,50.9055 L66.6935,50.9055 C72.475,50.9055 77.988,49.551 83.0175,47.096 L83.0175,47.096 C89.2565,44.052 94.7495,39.312 99.085,33.3655 L99.085,33.3655 C100.387,31.5805 101.5865,29.684 102.6685,27.695 L102.6685,27.695 C109.67,18.4975 120.7375,12.561 133.189,12.561 L133.189,12.561 C133.298,12.561 133.41,12.561 133.518,12.5645 L133.518,12.5645 L133.518,0.5925 C133.41,0.5895 133.298,0.5895 133.189,0.5895 L133.189,0.5895 C124.4525,0.5895 116.2315,2.818 109.0715,6.7365 L109.0715,6.7365 C102.0995,10.5495 96.13,15.9665 91.656,22.492 L91.656,22.492 C90.8705,23.639 90.131,24.8225 89.4405,26.035 L89.4405,26.035 C83.8725,33.944 75.746,38.931 66.6935,38.931 L66.6935,38.931 C57.6045,38.931 49.4485,33.905 43.8805,25.9365 L43.8805,25.9365 C43.184,24.694 42.431,23.484 41.632,22.3075 L41.632,22.3075 C37.188,15.7755 31.2445,10.3425 24.2955,6.506 L24.2955,6.506 C17.0935,2.5255 8.8095,0.2605 0,0.2605 L0,0.2605 L0,12.2325 Z" id="path-1"></path>
        <path d="M0.424,19.1215 C0.424,29.5815 8.9015,38.056 19.358,38.056 L19.358,38.056 C25.1045,38.056 30.248,35.4985 33.723,31.4585 L33.723,31.4585 C34.022,31.1065 34.3115,30.7485 34.5875,30.377 L34.5875,30.377 C34.9885,29.69 35.219,28.888 35.219,28.0365 L35.219,28.0365 C35.219,25.4595 33.128,23.372 30.554,23.372 L30.554,23.372 C29.2035,23.372 27.987,23.9475 27.1355,24.8675 L27.1355,24.8675 C27.0005,25.0515 26.8595,25.229 26.705,25.4035 L26.705,25.4035 C24.9365,27.4775 22.3,28.7925 19.358,28.7925 L19.358,28.7925 C14.0165,28.7925 9.6875,24.463 9.6875,19.1215 L9.6875,19.1215 C9.6875,13.783 14.0165,9.4545 19.358,9.4545 L19.358,9.4545 C22.2575,9.4545 24.8575,10.7295 26.626,12.751 L26.626,12.751 C26.8395,12.991 27.04,13.241 27.221,13.5005 L27.221,13.5005 C28.0695,14.3685 29.249,14.904 30.554,14.904 L30.554,14.904 C33.128,14.904 35.219,12.8135 35.219,10.2395 L35.219,10.2395 C35.219,9.3095 34.946,8.4415 34.469,7.712 L34.469,7.712 C34.2815,7.462 34.088,7.219 33.884,6.979 L33.884,6.979 C30.413,2.8275 25.193,0.188 19.358,0.188 L19.358,0.188 C8.9015,0.188 0.424,8.6655 0.424,19.1215" id="path-3"></path>
    </defs>
    <g id="Page-1" stroke="none" stroke-width="1" fill="none" fill-rule="evenodd">
        <g id="Group">
            <g id="Group-3" transform="translate(0.000000, 55.000000)">
                <mask id="mask-2" fill="white">
                    <use xlink:href="#path-1"></use>
                </mask>
                <g id="Clip-2"></g>
                <path d="M1.42108547e-14,12.2325 C12.498,12.2325 23.602,18.2115 30.6,27.4685 L30.6,27.4685 C31.685,29.49 32.8885,31.413 34.203,33.2245 L34.203,33.2245 C38.509,39.1805 43.976,43.937 50.1915,47.0075 L50.1915,47.0075 C55.267,49.519 60.8425,50.9055 66.6935,50.9055 L66.6935,50.9055 C72.475,50.9055 77.988,49.551 83.0175,47.096 L83.0175,47.096 C89.2565,44.052 94.7495,39.312 99.085,33.3655 L99.085,33.3655 C100.387,31.5805 101.5865,29.684 102.6685,27.695 L102.6685,27.695 C109.67,18.4975 120.7375,12.561 133.189,12.561 L133.189,12.561 C133.298,12.561 133.41,12.561 133.518,12.5645 L133.518,12.5645 L133.518,0.5925 C133.41,0.5895 133.298,0.5895 133.189,0.5895 L133.189,0.5895 C124.4525,0.5895 116.2315,2.818 109.0715,6.7365 L109.0715,6.7365 C102.0995,10.5495 96.13,15.9665 91.656,22.492 L91.656,22.492 C90.8705,23.639 90.131,24.8225 89.4405,26.035 L89.4405,26.035 C83.8725,33.944 75.746,38.931 66.6935,38.931 L66.6935,38.931 C57.6045,38.931 49.4485,33.905 43.8805,25.9365 L43.8805,25.9365 C43.184,24.694 42.431,23.484 41.632,22.3075 L41.632,22.3075 C37.188,15.7755 31.2445,10.3425 24.2955,6.506 L24.2955,6.506 C17.0935,2.5255 8.8095,0.2605 1.42108547e-14,0.2605 L1.42108547e-14,0.2605 L1.42108547e-14,12.2325 Z" id="Fill-1" fill="#101737" mask="url(#mask-2)"></path>
            </g>
            <g id="Group-6" transform="translate(48.000000, 43.500000)">
                <mask id="mask-4" fill="white">
                    <use xlink:href="#path-3"></use>
                </mask>
                <g id="Clip-5"></g>
                <path d="M0.424,19.1215 C0.424,29.5815 8.9015,38.056 19.358,38.056 L19.358,38.056 C25.1045,38.056 30.248,35.4985 33.723,31.4585 L33.723,31.4585 C34.022,31.1065 34.3115,30.7485 34.5875,30.377 L34.5875,30.377 C34.9885,29.69 35.219,28.888 35.219,28.0365 L35.219,28.0365 C35.219,25.4595 33.128,23.372 30.554,23.372 L30.554,23.372 C29.2035,23.372 27.987,23.9475 27.1355,24.8675 L27.1355,24.8675 C27.0005,25.0515 26.8595,25.229 26.705,25.4035 L26.705,25.4035 C24.9365,27.4775 22.3,28.7925 19.358,28.7925 L19.358,28.7925 C14.0165,28.7925 9.6875,24.463 9.6875,19.1215 L9.6875,19.1215 C9.6875,13.783 14.0165,9.4545 19.358,9.4545 L19.358,9.4545 C22.2575,9.4545 24.8575,10.7295 26.626,12.751 L26.626,12.751 C26.8395,12.991 27.04,13.241 27.221,13.5005 L27.221,13.5005 C28.0695,14.3685 29.249,14.904 30.554,14.904 L30.554,14.904 C33.128,14.904 35.219,12.8135 35.219,10.2395 L35.219,10.2395 C35.219,9.3095 34.946,8.4415 34.469,7.712 L34.469,7.712 C34.2815,7.462 34.088,7.219 33.884,6.979 L33.884,6.979 C30.413,2.8275 25.193,0.188 19.358,0.188 L19.358,0.188 C8.9015,0.188 0.424,8.6655 0.424,19.1215" id="Fill-4" fill="#101737" mask="url(#mask-4)"></path>
            </g>
            <g id="Group-8" transform="translate(174.000000, 0.000000)" fill="#101737" font-family="Rajdhani-Bold, Rajdhani" font-size="70" font-weight="bold">
                <text id="Coding-">
                    <tspan x="0.31055" y="65.2840498">Coding </tspan>
                </text>
            </g>
            <text id="the-Curbs" font-family="Rajdhani-Bold, Rajdhani" font-size="70" font-weight="bold" fill="#101737">
                <tspan x="174.31055" y="132.78405">the Curbs</tspan>
            </text>
        </g>
    </g>
</svg>